<svg width="20" height="20" viewBox="0 0 20 20" fill="none" xmlns="http://www.w3.org/2000/svg">
<g clip-path="url(#clip0_1204_428)">
<path d="M15.0001 15.7144H17.8572C18.2361 15.7144 18.5995 15.5639 18.8674 15.296C19.1353 15.0281 19.2858 14.6647 19.2858 14.2859V7.85728C19.2858 7.4784 19.1353 7.11504 18.8674 6.84713C18.5995 6.57922 18.2361 6.42871 17.8572 6.42871H2.14293C1.76405 6.42871 1.40068 6.57922 1.13277 6.84713C0.864865 7.11504 0.714355 7.4784 0.714355 7.85728V14.2859C0.714355 14.6647 0.864865 15.0281 1.13277 15.296C1.40068 15.5639 1.76405 15.7144 2.14293 15.7144H5.00007" stroke="white" stroke-linecap="round" stroke-linejoin="round"/>
<path d="M5 13.5715V18.5715C5 18.761 5.07526 18.9427 5.20921 19.0766C5.34316 19.2106 5.52485 19.2858 5.71429 19.2858H14.2857C14.4752 19.2858 14.6568 19.2106 14.7908 19.0766C14.9247 18.9427 15 18.761 15 18.5715V13.5715H5Z" stroke="white" stroke-linecap="round" stroke-linejoin="round"/>
<path d="M15 6.42864V1.42864C15 1.2392 14.9247 1.05752 14.7908 0.923565C14.6568 0.78961 14.4752 0.714355 14.2857 0.714355H5.71429C5.52485 0.714355 5.34316 0.78961 5.20921 0.923565C5.07526 1.05752 5 1.2392 5 1.42864V6.42864" stroke="white" stroke-linecap="round" stroke-linejoin="round"/>
<path d="M15.7145 10H14.2859" stroke="white" stroke-linecap="round" stroke-linejoin="round"/>
</g>
<defs>
<clipPath id="clip0_1204_428">
<rect width="20" height="20" fill="white"/>
</clipPath>
</defs>
</svg>
