<svg width="20" height="20" viewBox="0 0 20 20" fill="none" xmlns="http://www.w3.org/2000/svg">
<path d="M13.5715 2.14282H15.7143C16.0932 2.14282 16.4566 2.29333 16.7245 2.56124C16.9924 2.82915 17.1429 3.19251 17.1429 3.57139V17.8571C17.1429 18.236 16.9924 18.5994 16.7245 18.8673C16.4566 19.1352 16.0932 19.2857 15.7143 19.2857H4.28575C3.90687 19.2857 3.54351 19.1352 3.2756 18.8673C3.00769 18.5994 2.85718 18.236 2.85718 17.8571V3.57139C2.85718 3.19251 3.00769 2.82915 3.2756 2.56124C3.54351 2.29333 3.90687 2.14282 4.28575 2.14282H6.42861" stroke="white" stroke-linecap="round" stroke-linejoin="round"/>
<path d="M12.143 0.714355H7.85728C7.0683 0.714355 6.42871 1.35395 6.42871 2.14293V2.85721C6.42871 3.64619 7.0683 4.28578 7.85728 4.28578H12.143C12.932 4.28578 13.5716 3.64619 13.5716 2.85721V2.14293C13.5716 1.35395 12.932 0.714355 12.143 0.714355Z" stroke="white" stroke-linecap="round" stroke-linejoin="round"/>
<path d="M6.42871 7.85718H13.5716" stroke="white" stroke-linecap="round" stroke-linejoin="round"/>
<path d="M6.42871 11.4287H13.5716" stroke="white" stroke-linecap="round" stroke-linejoin="round"/>
<path d="M6.42871 15H13.5716" stroke="white" stroke-linecap="round" stroke-linejoin="round"/>
</svg>
