<svg width="25" height="24" viewBox="0 0 25 24" fill="none" xmlns="http://www.w3.org/2000/svg">
<path d="M8.81573 14H9.15027C9.25973 14 9.35646 13.9288 9.38898 13.8243L10.709 9.58191C10.7555 9.43225 10.9715 9.44529 10.9997 9.59947L12.3235 16.8319C12.3524 16.9899 12.5759 16.9981 12.6162 16.8425L13.4343 13.6873C13.4629 13.577 13.5624 13.5 13.6763 13.5H16.0757" stroke="#0085FF" stroke-linecap="round"/>
<path d="M9.33431 4.25C9.33431 4.94036 9.89396 5.5 10.5843 5.5H14.3072C14.9975 5.5 15.5572 4.94036 15.5572 4.25M9.33431 4.25C8.78316 4.25 8.50758 4.25 8.28002 4.30396C7.5443 4.47841 6.96986 5.05285 6.79541 5.78857C6.74146 6.01613 6.74146 6.2917 6.74146 6.84286V15.5C6.74146 17.857 6.74146 19.0355 7.47369 19.7678C8.20592 20.5 9.38443 20.5 11.7415 20.5H13.15C15.507 20.5 16.6856 20.5 17.4178 19.7678C18.15 19.0355 18.15 17.857 18.15 15.5V6.84286C18.15 6.2917 18.15 6.01613 18.0961 5.78857C17.9216 5.05285 17.3472 4.47841 16.6115 4.30396C16.3839 4.25 16.1083 4.25 15.5572 4.25M9.33431 4.25C9.33431 3.55964 9.89396 3 10.5843 3H14.3072C14.9975 3 15.5572 3.55964 15.5572 4.25" stroke="#0085FF"/>
</svg>
