<svg width="18" height="20" viewBox="0 0 18 20" fill="none" xmlns="http://www.w3.org/2000/svg">
<path d="M0.5 4.75H17.5" stroke="#707070" stroke-linecap="round" stroke-linejoin="round"/>
<path d="M2.625 4.75H15.375V17.5C15.375 17.8757 15.2257 18.2361 14.9601 18.5017C14.6944 18.7674 14.3341 18.9167 13.9583 18.9167H4.04167C3.66594 18.9167 3.30561 18.7674 3.03993 18.5017C2.77426 18.2361 2.625 17.8757 2.625 17.5V4.75Z" stroke="#707070" stroke-linecap="round" stroke-linejoin="round"/>
<path d="M5.4585 4.75V4.04167C5.4585 3.10236 5.83163 2.20152 6.49583 1.53733C7.16002 0.873139 8.06085 0.5 9.00016 0.5C9.93947 0.5 10.8403 0.873139 11.5045 1.53733C12.1687 2.20152 12.5418 3.10236 12.5418 4.04167V4.75" stroke="#707070" stroke-linecap="round" stroke-linejoin="round"/>
<path d="M6.875 7.5835V15.3752" stroke="#707070" stroke-linecap="round" stroke-linejoin="round"/>
<path d="M11.125 7.5835V15.3752" stroke="#707070" stroke-linecap="round" stroke-linejoin="round"/>
</svg>
