<svg width="24" height="24" viewBox="0 0 24 24" fill="none" xmlns="http://www.w3.org/2000/svg">
<path d="M12 5.8335V7.00016M12 7.00016V8.16683M12 7.00016H13.1667M12 7.00016H10.8334" stroke="#A3A3A3" stroke-linecap="round"/>
<path d="M9.34453 4.34453C8.88892 4.80014 8.88892 5.53344 8.88892 7.00003C8.88892 8.46662 8.88892 9.19992 9.34453 9.65553C9.80014 10.1111 10.5334 10.1111 12 10.1111C13.4666 10.1111 14.1999 10.1111 14.6555 9.65553C15.1111 9.19992 15.1111 8.46662 15.1111 7.00003C15.1111 5.53344 15.1111 4.80014 14.6555 4.34453C14.1999 3.88892 13.4666 3.88892 12 3.88892C10.5334 3.88892 9.80014 3.88892 9.34453 4.34453Z" stroke="#A3A3A3" stroke-linecap="round" stroke-linejoin="round"/>
<path d="M5.77771 19.4446V11.6441C5.77771 9.07004 5.77771 7.78301 6.57503 6.98336C7.08177 6.47513 7.78481 6.28991 8.88882 6.22241M18.2222 19.4446V11.6441C18.2222 9.07004 18.2222 7.78301 17.4248 6.98336C16.9181 6.47513 16.2151 6.28991 15.111 6.22241" stroke="#A3A3A3" stroke-linecap="round" stroke-linejoin="round"/>
<path d="M5 19.4446H19" stroke="#A3A3A3" stroke-linecap="round" stroke-linejoin="round"/>
<path d="M10.0557 19.4443V17.4999C10.0557 16.7729 10.0557 16.4095 10.212 16.1388C10.3144 15.9614 10.4616 15.8141 10.639 15.7117C10.9097 15.5554 11.2732 15.5554 12.0001 15.5554C12.727 15.5554 13.0905 15.5554 13.3612 15.7117C13.5386 15.8141 13.6859 15.9614 13.7882 16.1388C13.9446 16.4095 13.9446 16.7729 13.9446 17.4999V19.4443" stroke="#A3A3A3" stroke-linecap="round"/>
<path d="M8.89589 12.4446H8.88892M12 12.4446H11.9931M15.112 12.4446H15.1051" stroke="#A3A3A3" stroke-linecap="round" stroke-linejoin="round"/>
</svg>
