<svg width="15" height="17" viewBox="0 0 15 17" fill="none" xmlns="http://www.w3.org/2000/svg">
<path d="M7.50004 2.44458V3.61125M7.50004 3.61125V4.77791M7.50004 3.61125H8.66671M7.50004 3.61125H6.33337" stroke="#A3A3A3" stroke-linecap="round"/>
<path d="M4.84453 0.955612C4.38892 1.41122 4.38892 2.14452 4.38892 3.61111C4.38892 5.0777 4.38892 5.811 4.84453 6.26661C5.30014 6.72222 6.03344 6.72222 7.50003 6.72222C8.96662 6.72222 9.69992 6.72222 10.1555 6.26661C10.6111 5.811 10.6111 5.0777 10.6111 3.61111C10.6111 2.14452 10.6111 1.41122 10.1555 0.955612C9.69992 0.5 8.96662 0.5 7.50003 0.5C6.03344 0.5 5.30014 0.5 4.84453 0.955612Z" stroke="#A3A3A3" stroke-linecap="round" stroke-linejoin="round"/>
<path d="M1.27771 16.0557V8.25517C1.27771 5.68112 1.27771 4.3941 2.07503 3.59444C2.58177 3.08622 3.28481 2.901 4.38882 2.8335M13.7222 16.0557V8.25517C13.7222 5.68112 13.7222 4.3941 12.9248 3.59444C12.4181 3.08622 11.7151 2.901 10.611 2.8335" stroke="#A3A3A3" stroke-linecap="round" stroke-linejoin="round"/>
<path d="M0.5 16.0557H14.5" stroke="#A3A3A3" stroke-linecap="round" stroke-linejoin="round"/>
<path d="M5.55554 16.0556V14.1112C5.55554 13.3843 5.55554 13.0208 5.71185 12.7501C5.81424 12.5727 5.96152 12.4254 6.13888 12.3231C6.4096 12.1667 6.77306 12.1667 7.49999 12.1667C8.22691 12.1667 8.59037 12.1667 8.8611 12.3231C9.03845 12.4254 9.18573 12.5727 9.28813 12.7501C9.44443 13.0208 9.44443 13.3843 9.44443 14.1112V16.0556" stroke="#A3A3A3" stroke-linecap="round"/>
<path d="M4.39589 9.05566H4.38892M7.50003 9.05566H7.49306M10.612 9.05566H10.6051" stroke="#A3A3A3" stroke-linecap="round" stroke-linejoin="round"/>
</svg>
