<svg width="25" height="24" viewBox="0 0 25 24" fill="none" xmlns="http://www.w3.org/2000/svg">
<path d="M17.92 6.62864L19.7534 8.3964M17.92 6.62864L16.0865 4.86087M17.92 6.62864L19.7534 4.86087M15.3532 4.15376C15.6396 4.4299 16.0865 4.86087 16.0865 4.86087M20.4868 9.10351C20.2004 8.82737 19.7534 8.3964 19.7534 8.3964M19.7534 8.3964L16.0865 11.9319M16.0865 4.86087L12.4197 8.3964M10.5863 15.821L10.5997 15.834C10.9973 16.2174 11.6419 16.2174 12.0395 15.834L16.0865 11.9319M10.5863 15.821L10.2196 16.1746C9.61202 16.7604 8.627 16.7604 8.01946 16.1746C7.41191 15.5888 7.41191 14.639 8.01945 14.0533L8.38614 13.6997M10.5863 15.821L8.38614 13.6997M8.38614 13.6997L8.37265 13.6867C7.97507 13.3034 7.97507 12.6818 8.37265 12.2985L12.4197 8.3964M12.4197 8.3964L16.0865 11.9319M19.7534 4.86087L19.0401 4.17318C19.0271 4.16058 19.0186 4.14422 19.0161 4.12657C19.0139 4.11105 19.0334 4.1017 19.0449 4.11278L20.5292 5.54399C20.5407 5.55507 20.531 5.57388 20.5149 5.57173C20.4966 5.5693 20.4797 5.56116 20.4666 5.54857L19.7534 4.86087Z" stroke="#0085FF" stroke-linecap="round"/>
<path d="M5.00774 19.0784L8.01941 16.1746" stroke="#0085FF" stroke-linecap="round"/>
<path d="M12.4196 14.7603L11.6863 14.0532" stroke="#0085FF" stroke-linecap="round"/>
<path d="M13.5197 13.6998L12.7863 12.9927" stroke="#0085FF" stroke-linecap="round"/>
<path d="M14.6198 12.639L13.8864 11.9319" stroke="#0085FF" stroke-linecap="round"/>
</svg>
