<svg width="319" height="68" viewBox="0 0 319 68" fill="none" xmlns="http://www.w3.org/2000/svg">
<path d="M0 26.6123V53.2244L17.3837 52.6957L34.5986 52.167L35.1049 46.5273L35.6112 40.8877L26.6662 40.359C18.2276 39.8302 17.7212 39.4778 17.2149 34.8956C16.7086 30.3134 16.8774 30.1371 25.1473 30.1371C33.0796 30.1371 33.7547 29.7846 33.7547 25.9074C33.7547 21.8539 32.9109 21.5014 25.8224 20.9727C18.9027 20.444 17.7212 19.9153 17.2149 16.5667C16.7086 13.042 17.5525 12.6895 25.6536 12.1608C34.4298 11.632 34.5986 11.4558 35.1049 5.81616L35.6112 0.176517H17.89H0V26.6123Z" fill="#717171"/>
<path d="M172.15 26.4358V53.0479H179.745H187.34V40.5349C187.34 26.7883 188.69 26.2596 194.091 37.3626C198.816 46.7033 202.529 46.3508 207.761 35.7765L211.812 27.4933L212.318 40.1824L212.825 53.0479H220.251H227.845V26.4358V0L220.082 0.528717L212.15 1.05743L206.242 13.2179L200.335 25.3784L194.26 13.2179L188.184 1.05743L180.251 0.528717L172.15 0V26.4358Z" fill="#717171"/>
<path d="M308.522 1.40991C304.134 2.11486 303.796 2.81982 303.796 10.2218C303.796 17.0952 303.459 17.9764 300.927 16.7427C299.239 16.0377 294.851 15.1565 291.138 14.6278C285.4 14.0991 283.543 14.8041 279.83 18.6813C271.392 27.4933 271.729 40.8874 280.505 48.6419C286.244 53.7528 294.345 54.4578 300.083 50.2281C303.459 47.7607 303.796 47.7607 303.796 50.2281C303.796 52.3429 305.653 53.0479 311.391 53.0479H318.986V26.6121C318.986 -2.46735 319.83 -0.352482 308.522 1.40991ZM302.108 29.9606C305.315 36.3052 300.252 41.9448 293.501 39.83C289.619 38.4201 287.763 32.4279 290.294 29.2556C293.332 25.5546 299.914 26.0833 302.108 29.9606Z" fill="#717171"/>
<path d="M43.7162 19.3875C39.6657 23.7934 38.8218 26.0846 38.8218 33.3103C38.8218 40.8886 39.6657 42.8272 44.2226 47.5857C50.2984 53.754 60.4248 55.164 64.1379 50.4055C65.9944 47.9382 66.5007 48.1144 68.1884 50.5817C69.5386 52.5204 72.239 53.0491 76.7959 52.6966L83.5468 52.1679L84.0532 33.1341L84.5595 14.2766H76.9647C71.9015 14.2766 68.8635 15.1577 67.8509 17.0964C66.5007 19.5637 66.1631 19.5637 64.3066 17.0964C62.9564 15.334 59.4122 14.2766 55.3616 14.2766C50.2984 14.2766 47.598 15.5102 43.7162 19.3875ZM65.4881 28.1994C68.526 30.138 67.3446 37.1876 63.8003 39.6549C57.8932 43.5322 51.3111 34.8965 55.6992 29.2569C58.062 26.2608 62.1126 25.9083 65.4881 28.1994Z" fill="#717171"/>
<path d="M93.8388 17.9764C85.9064 24.4972 88.7756 36.3052 98.7332 38.2438C107.003 39.83 106.328 43.1785 98.0581 41.9448C91.9823 41.2399 91.3072 41.4161 90.2945 45.6459C88.9444 51.4617 91.476 53.0479 102.277 53.0479C109.197 53.0479 111.56 52.1667 114.767 48.8182C116.792 46.3508 118.649 42.2973 118.649 39.6537C118.649 34.3666 112.91 28.3744 107.847 28.3744C106.159 28.3744 104.303 27.4933 103.796 26.6121C103.121 25.5546 105.484 24.8497 109.366 24.8497C114.767 24.8497 116.286 24.1447 116.961 20.9724C118.48 15.1565 117.13 14.2753 107.341 14.2753C100.759 14.2753 97.0455 15.3328 93.8388 17.9764Z" fill="#717171"/>
<path d="M123.374 28.1988C124.049 40.0068 124.724 42.8266 128.1 46.7038C132.825 51.991 140.758 52.696 146.496 48.4662C149.534 46.3514 150.209 46.3514 150.209 48.1137C150.209 52.1672 146.496 54.8108 140.758 54.8108C136.032 54.8108 135.357 55.5158 134.682 60.098C134.176 63.094 134.344 65.7376 134.682 66.2663C136.707 68.205 150.715 66.9713 155.441 64.3277C163.036 60.2742 165.399 52.5197 165.399 31.8998V14.2759H157.804H150.209V22.0304C150.209 32.4285 147.677 38.9493 143.627 38.9493C139.576 38.9493 138.395 35.6008 138.395 23.7928V14.2759H130.631H122.868L123.374 28.1988Z" fill="#717171"/>
<path d="M241.01 18.3288C232.74 25.5546 230.884 33.3091 235.441 42.4736C238.816 49.1706 246.074 53.0479 255.525 53.0479C266.158 53.0479 268.352 51.8142 268.352 45.6459C268.352 40.5349 268.183 40.3587 262.107 41.5924C257.719 42.2973 254.681 41.7686 252.487 40.1824C249.449 37.8913 249.955 37.5389 259.575 36.3052C269.702 35.0715 270.039 34.8953 270.039 30.1368C270.039 27.317 268.183 22.7348 265.651 19.7387C261.938 14.9803 260.082 14.2753 253.5 14.2753C247.761 14.2753 244.386 15.3328 241.01 18.3288ZM257.719 25.9071C258.056 26.9645 256.2 28.3744 253.668 28.9032C247.93 29.9606 246.917 29.2556 249.787 25.7309C252.149 22.7348 256.706 22.7348 257.719 25.9071Z" fill="#717171"/>
</svg>
