<svg width="20" height="19" viewBox="0 0 20 19" fill="none" xmlns="http://www.w3.org/2000/svg">
<path d="M6.15804 3.95841C6.15804 4.39564 6.52565 4.75008 6.97911 4.75008C7.43258 4.75008 7.80018 4.39564 7.80018 3.95841C7.80018 3.52119 7.43258 3.16675 6.97911 3.16675C6.52565 3.16675 6.15804 3.52119 6.15804 3.95841ZM6.15804 3.95841C5.02438 3.95841 4.10536 4.87743 4.10536 6.01109V9.35306C4.10536 11.6204 5.94339 13.4584 8.21072 13.4584M10.6739 3.95841C10.6739 4.39564 10.3063 4.75008 9.85286 4.75008C9.3994 4.75008 9.03179 4.39564 9.03179 3.95841C9.03179 3.52119 9.3994 3.16675 9.85286 3.16675C10.3063 3.16675 10.6739 3.52119 10.6739 3.95841ZM10.6739 3.95841C11.5809 3.95841 12.3161 4.69363 12.3161 5.60056V9.35306C12.3161 11.6204 10.478 13.4584 8.21072 13.4584M8.21072 13.4584C8.21072 17.4167 15.1898 17.8126 15.1898 13.4584V10.2917" stroke="white"/>
<path d="M16.4214 9.10425C16.4214 9.76009 15.87 10.2917 15.1898 10.2917C14.5096 10.2917 13.9582 9.76009 13.9582 9.10425C13.9582 8.44841 14.5096 7.91675 15.1898 7.91675C15.87 7.91675 16.4214 8.44841 16.4214 9.10425Z" stroke="white"/>
<path d="M15.1898 9.0962H15.1985V9.10453H15.1898V9.0962Z" stroke="white" stroke-linejoin="round"/>
</svg>
